<mxfile host="app.diagrams.net" modified="2023-03-13T23:21:29.423Z" agent="5.0 (Macintosh; Intel Mac OS X 10_15_7) AppleWebKit/537.36 (KHTML, like Gecko) Chrome/111.0.0.0 Safari/537.36" etag="Mp9X1XGO4u6pZSqqV2it" version="20.8.20" type="github">
  <diagram name="Page-1" id="XEl8TQJmfRqNOWOC7zEM">
    <mxGraphModel dx="1076" dy="697" grid="1" gridSize="10" guides="1" tooltips="1" connect="1" arrows="1" fold="1" page="1" pageScale="1" pageWidth="827" pageHeight="1169" math="0" shadow="0">
      <root>
        <mxCell id="0" />
        <mxCell id="1" parent="0" />
        <mxCell id="TfZXY18NC3iUvIuvR9pN-3" value="Application" style="html=1;dashed=0;whitespace=wrap;shape=mxgraph.dfd.start;fillColor=#f5f5f5;fontColor=#333333;strokeColor=#666666;fontStyle=1" vertex="1" parent="1">
          <mxGeometry x="480" y="500" width="80" height="30" as="geometry" />
        </mxCell>
        <mxCell id="TfZXY18NC3iUvIuvR9pN-6" value="Advertiser" style="html=1;dashed=0;whitespace=wrap;shape=mxgraph.dfd.start;fillColor=#f5f5f5;fontColor=#333333;strokeColor=#666666;fontStyle=1" vertex="1" parent="1">
          <mxGeometry x="40" y="500" width="80" height="30" as="geometry" />
        </mxCell>
        <mxCell id="TfZXY18NC3iUvIuvR9pN-7" value="Developer" style="html=1;dashed=0;whitespace=wrap;fillColor=#dae8fc;strokeColor=#6c8ebf;" vertex="1" parent="1">
          <mxGeometry x="294" y="500" width="80" height="30" as="geometry" />
        </mxCell>
        <mxCell id="TfZXY18NC3iUvIuvR9pN-8" value="Developer Table" style="html=1;dashed=0;whitespace=wrap;shape=partialRectangle;right=0;left=0;fillColor=#e1d5e7;strokeColor=#9673a6;" vertex="1" parent="1">
          <mxGeometry x="284" y="390" width="100" height="30" as="geometry" />
        </mxCell>
        <mxCell id="TfZXY18NC3iUvIuvR9pN-9" value="Advertisement table" style="html=1;dashed=0;whitespace=wrap;shape=partialRectangle;right=0;left=0;fillColor=#e1d5e7;strokeColor=#9673a6;fontSize=10;" vertex="1" parent="1">
          <mxGeometry x="284" y="790" width="100" height="30" as="geometry" />
        </mxCell>
        <mxCell id="TfZXY18NC3iUvIuvR9pN-12" value="" style="endArrow=classic;html=1;rounded=0;entryX=0.5;entryY=0;entryDx=0;entryDy=0;exitX=0.5;exitY=1;exitDx=0;exitDy=0;" edge="1" parent="1" source="TfZXY18NC3iUvIuvR9pN-8" target="TfZXY18NC3iUvIuvR9pN-7">
          <mxGeometry relative="1" as="geometry">
            <mxPoint x="384" y="460" as="sourcePoint" />
            <mxPoint x="414" y="540" as="targetPoint" />
          </mxGeometry>
        </mxCell>
        <mxCell id="TfZXY18NC3iUvIuvR9pN-13" value="Developer details" style="edgeLabel;resizable=0;html=1;align=center;verticalAlign=middle;" connectable="0" vertex="1" parent="TfZXY18NC3iUvIuvR9pN-12">
          <mxGeometry relative="1" as="geometry" />
        </mxCell>
        <mxCell id="TfZXY18NC3iUvIuvR9pN-14" value="Reaches&lt;br&gt;Out" style="shape=ellipse;html=1;dashed=0;whitespace=wrap;aspect=fixed;perimeter=ellipsePerimeter;fontSize=8;fillColor=#fff2cc;strokeColor=#d6b656;fontStyle=1" vertex="1" parent="1">
          <mxGeometry x="176" y="486" width="58" height="58" as="geometry" />
        </mxCell>
        <mxCell id="TfZXY18NC3iUvIuvR9pN-15" value="" style="endArrow=classic;html=1;rounded=0;fontSize=6;exitX=1;exitY=0.5;exitDx=0;exitDy=0;exitPerimeter=0;entryX=0;entryY=0.5;entryDx=0;entryDy=0;" edge="1" parent="1" source="TfZXY18NC3iUvIuvR9pN-6" target="TfZXY18NC3iUvIuvR9pN-14">
          <mxGeometry width="50" height="50" relative="1" as="geometry">
            <mxPoint x="390" y="560" as="sourcePoint" />
            <mxPoint x="440" y="510" as="targetPoint" />
          </mxGeometry>
        </mxCell>
        <mxCell id="TfZXY18NC3iUvIuvR9pN-16" value="" style="endArrow=classic;html=1;rounded=0;fontSize=6;exitX=1;exitY=0.5;exitDx=0;exitDy=0;entryX=0;entryY=0.5;entryDx=0;entryDy=0;" edge="1" parent="1" source="TfZXY18NC3iUvIuvR9pN-14" target="TfZXY18NC3iUvIuvR9pN-7">
          <mxGeometry width="50" height="50" relative="1" as="geometry">
            <mxPoint x="390" y="560" as="sourcePoint" />
            <mxPoint x="360" y="515" as="targetPoint" />
          </mxGeometry>
        </mxCell>
        <mxCell id="TfZXY18NC3iUvIuvR9pN-17" value="Develops" style="shape=ellipse;html=1;dashed=0;whitespace=wrap;aspect=fixed;perimeter=ellipsePerimeter;fontSize=10;fontStyle=1;fillColor=#fff2cc;strokeColor=#d6b656;" vertex="1" parent="1">
          <mxGeometry x="304.75" y="580" width="60" height="60" as="geometry" />
        </mxCell>
        <mxCell id="TfZXY18NC3iUvIuvR9pN-18" value="Adversitement" style="shape=parallelogram;perimeter=parallelogramPerimeter;whiteSpace=wrap;html=1;dashed=0;fontSize=9;fontStyle=1;fillColor=#d5e8d4;strokeColor=#82b366;" vertex="1" parent="1">
          <mxGeometry x="284" y="690" width="96" height="40" as="geometry" />
        </mxCell>
        <mxCell id="TfZXY18NC3iUvIuvR9pN-19" value="" style="endArrow=classic;html=1;rounded=0;fontSize=9;exitX=0.5;exitY=1;exitDx=0;exitDy=0;entryX=0.5;entryY=0;entryDx=0;entryDy=0;" edge="1" parent="1" source="TfZXY18NC3iUvIuvR9pN-7" target="TfZXY18NC3iUvIuvR9pN-17">
          <mxGeometry width="50" height="50" relative="1" as="geometry">
            <mxPoint x="390" y="560" as="sourcePoint" />
            <mxPoint x="440" y="510" as="targetPoint" />
          </mxGeometry>
        </mxCell>
        <mxCell id="TfZXY18NC3iUvIuvR9pN-21" value="Published&amp;nbsp;&lt;br style=&quot;font-size: 9px;&quot;&gt;in" style="shape=ellipse;html=1;dashed=0;whitespace=wrap;aspect=fixed;perimeter=ellipsePerimeter;fontSize=9;fontStyle=1;fillColor=#fff2cc;strokeColor=#d6b656;" vertex="1" parent="1">
          <mxGeometry x="490" y="679.75" width="60.25" height="60.25" as="geometry" />
        </mxCell>
        <mxCell id="TfZXY18NC3iUvIuvR9pN-22" value="" style="endArrow=classic;html=1;rounded=0;fontSize=9;exitX=1;exitY=0.5;exitDx=0;exitDy=0;entryX=0;entryY=0.5;entryDx=0;entryDy=0;" edge="1" parent="1" source="TfZXY18NC3iUvIuvR9pN-18" target="TfZXY18NC3iUvIuvR9pN-21">
          <mxGeometry width="50" height="50" relative="1" as="geometry">
            <mxPoint x="390" y="560" as="sourcePoint" />
            <mxPoint x="440" y="510" as="targetPoint" />
          </mxGeometry>
        </mxCell>
        <mxCell id="TfZXY18NC3iUvIuvR9pN-23" value="" style="endArrow=classic;html=1;rounded=0;fontSize=9;exitX=0.5;exitY=0;exitDx=0;exitDy=0;entryX=0.5;entryY=0.5;entryDx=0;entryDy=15;entryPerimeter=0;" edge="1" parent="1" source="TfZXY18NC3iUvIuvR9pN-21" target="TfZXY18NC3iUvIuvR9pN-3">
          <mxGeometry width="50" height="50" relative="1" as="geometry">
            <mxPoint x="390" y="560" as="sourcePoint" />
            <mxPoint x="440" y="510" as="targetPoint" />
          </mxGeometry>
        </mxCell>
        <mxCell id="TfZXY18NC3iUvIuvR9pN-24" value="" style="endArrow=classic;html=1;rounded=0;fontSize=9;exitX=0.5;exitY=1;exitDx=0;exitDy=0;entryX=0.5;entryY=0;entryDx=0;entryDy=0;" edge="1" parent="1" source="TfZXY18NC3iUvIuvR9pN-17" target="TfZXY18NC3iUvIuvR9pN-18">
          <mxGeometry width="50" height="50" relative="1" as="geometry">
            <mxPoint x="390" y="560" as="sourcePoint" />
            <mxPoint x="440" y="510" as="targetPoint" />
          </mxGeometry>
        </mxCell>
        <mxCell id="TfZXY18NC3iUvIuvR9pN-26" value="" style="endArrow=classic;startArrow=classic;html=1;rounded=0;fontSize=9;entryX=0.5;entryY=1;entryDx=0;entryDy=0;exitX=0.5;exitY=0;exitDx=0;exitDy=0;" edge="1" parent="1" source="TfZXY18NC3iUvIuvR9pN-9" target="TfZXY18NC3iUvIuvR9pN-18">
          <mxGeometry width="50" height="50" relative="1" as="geometry">
            <mxPoint x="170" y="780" as="sourcePoint" />
            <mxPoint x="220" y="730" as="targetPoint" />
          </mxGeometry>
        </mxCell>
        <mxCell id="TfZXY18NC3iUvIuvR9pN-27" value="Ad details" style="text;strokeColor=none;fillColor=none;align=left;verticalAlign=middle;spacingLeft=4;spacingRight=4;overflow=hidden;points=[[0,0.5],[1,0.5]];portConstraint=eastwest;rotatable=0;whiteSpace=wrap;html=1;fontSize=10;" vertex="1" parent="1">
          <mxGeometry x="330" y="740.25" width="80" height="30" as="geometry" />
        </mxCell>
        <mxCell id="TfZXY18NC3iUvIuvR9pN-28" value="" style="endArrow=classic;html=1;rounded=0;fontSize=10;exitX=0.5;exitY=0.5;exitDx=0;exitDy=15;exitPerimeter=0;" edge="1" parent="1" source="TfZXY18NC3iUvIuvR9pN-6">
          <mxGeometry width="50" height="50" relative="1" as="geometry">
            <mxPoint x="390" y="560" as="sourcePoint" />
            <mxPoint x="80" y="680" as="targetPoint" />
          </mxGeometry>
        </mxCell>
        <mxCell id="TfZXY18NC3iUvIuvR9pN-29" value="Pays for Ad" style="shape=ellipse;html=1;dashed=0;whitespace=wrap;aspect=fixed;perimeter=ellipsePerimeter;fontSize=8;fontStyle=1;fillColor=#fff2cc;strokeColor=#d6b656;" vertex="1" parent="1">
          <mxGeometry x="49.75" y="679.75" width="60.5" height="60.5" as="geometry" />
        </mxCell>
        <mxCell id="TfZXY18NC3iUvIuvR9pN-30" value="" style="endArrow=classic;html=1;rounded=0;fontSize=10;exitX=1;exitY=0.5;exitDx=0;exitDy=0;entryX=0;entryY=0.5;entryDx=0;entryDy=0;" edge="1" parent="1" source="TfZXY18NC3iUvIuvR9pN-29" target="TfZXY18NC3iUvIuvR9pN-18">
          <mxGeometry width="50" height="50" relative="1" as="geometry">
            <mxPoint x="390" y="560" as="sourcePoint" />
            <mxPoint x="440" y="510" as="targetPoint" />
          </mxGeometry>
        </mxCell>
      </root>
    </mxGraphModel>
  </diagram>
</mxfile>
